<?xml version="1.0" encoding="UTF-8" standalone="no"?>
<!-- Created with Inkscape (http://www.inkscape.org/) -->
<svg
   version="1.1"
   id="svg1"
   width="2666.6667"
   height="2666.6667"
   viewBox="0 0 100 100"
   sodipodi:docname="medical-01.eps"
   xmlns:inkscape="http://www.inkscape.org/namespaces/inkscape"
   xmlns:sodipodi="http://sodipodi.sourceforge.net/DTD/sodipodi-0.dtd"
   xmlns="http://www.w3.org/2000/svg"
   xmlns:svg="http://www.w3.org/2000/svg">
  <defs
     id="defs1" />
  <sodipodi:namedview
     id="namedview1"
     pagecolor="#ffffff"
     bordercolor="#000000"
     borderopacity="0.25"
     inkscape:showpageshadow="2"
     inkscape:pageopacity="0.0"
     inkscape:pagecheckerboard="0"
     inkscape:deskcolor="#d1d1d1">
    <inkscape:page
       x="0"
       y="0"
       inkscape:label="1"
       id="page1"
       width="2666.6667"
       height="2666.6667"
       margin="0"
       bleed="0" />
  </sodipodi:namedview>
  
  <!-- 中心点修正变换 -->
  <g transform="translate(50,50) scale(0.005,-0.005) translate(-10000,-10000)">
    <g
       id="g1"
       inkscape:groupmode="layer"
       inkscape:label="1">
      <g
         id="group-R5">
        <path
           id="path2"
           d="M 20000,0 H 0 V 20000 H 20000 V 0"
           style="fill:#f5f6f5;fill-opacity:1;fill-rule:nonzero;stroke:none" />
        <path
           id="path3"
           d="m 12072.7,12072.7 c -70.9,432.3 -131.5,840.1 -120.3,1223.9 l 1344.2,-1344.2 c -383.8,-11.2 -791.6,49.4 -1223.9,120.3 z M 11071.5,9153.2 9153.23,11071.5 c 228.28,203.8 468.43,333.3 720.48,410 L 11481.5,9873.7 c -76.8,-252 -206.2,-492.2 -410,-720.5 z M 8550.65,8550.6 c -65.16,419.9 -110.01,815.9 -74.53,1188.3 L 9738.89,8476.1 c -372.42,-35.5 -768.41,9.4 -1188.24,74.5 z M 6695.52,8086.2 c 397.88,18.3 821.84,-44.4 1272.31,-118.4 73.95,-450.4 136.62,-874.4 118.38,-1272.3 z m 2230.76,2751.7 1911.62,-1911.6 c -225.2,-189.3 -461.8,-308.8 -709.8,-378.8 l -1580.62,1580.6 c 70,248 189.5,484.6 378.8,709.8 z m 2563.42,651.8 c 67.7,-436.8 113.4,-847.8 69.7,-1233.3 l -1303,1303 c 385.5,43.7 796.5,-2 1233.3,-69.7 z m 3412,804.6 v 0 c -116.9,116.9 -301.3,130.1 -434.8,32.6 -239.1,-174.8 -490.7,-276.8 -754.7,-329.5 l -1714.8,1714.8 c 52.7,264 154.7,515.6 329.5,754.7 97.5,133.5 84.3,317.9 -32.6,434.8 -144,144 -383.9,128 -504.4,-36.3 -617.9,-843.2 -548.4,-1797.3 -412,-2683.6 -941,127 -1941.09,124.3 -2792.29,-726.9 -851.42,-851.4 -854.14,-1851.5 -727.06,-2792.5 -901.96,138.9 -1874.27,208.4 -2728.32,-445.3 -160.12,-122.5 -174.67,-358.8 -32.09,-501.4 v 0 c 118.77,-118.7 306.86,-130.3 440.3,-28.3 240.97,184.2 494.64,292.7 761.1,349.7 l -7.74,-7.7 L 8034.19,6287 c -57.72,-261.9 -165.53,-511.4 -346.82,-748.6 -102.01,-133.4 -90.4,-321.5 28.36,-440.3 h 0.01 c 142.58,-142.5 378.82,-128 501.37,32.1 653.7,854.1 584.18,1826.4 445.33,2728.3 941.01,-127 1941.06,-124.3 2792.46,727.1 851.2,851.2 853.9,1851.3 726.9,2792.3 886.3,-136.4 1840.4,-205.9 2683.6,412 164.3,120.5 180.3,360.4 36.3,504.4"
           style="fill:#2e2d2d;fill-opacity:1;fill-rule:nonzero;stroke:none" />
      </g>
    </g>
  </g>
  
 
</svg>